TexturaLiberaEx-Light.sfdir
StartChar: dollar
Encoding: 36 36 4
Width: 720
Flags: W
HStem: -177 21G<333 364> 23 54<110.944 330.205> 523 54<389.795 609.056> 607 20G<236 333 640 687>
VStem: 93 54<365 464> 333 54<-134 -10 60 266 334 540 610 684> 573 54<136 235>
CounterMasks: 1 0e
LayerCount: 2
Back
SplineSet
360 700 m 25
 360 -150 l 1049
660 600 m 17
 660 600 610 550 570 550 c 24
 440 550 240 600 240 600 c 9
 120 480 l 1
 120 340 l 1
 600 260 l 1
 600 120 l 1
 480 0 l 17
 480 0 280 50 150 50 c 24
 110 50 60 0 60 0 c 1025
EndSplineSet
Fore
SplineSet
687 616 m 1
 644 573 l 1
 644 573 594 523 554 523 c 0
 503 523 443 531 387 540 c 1
 387 325 l 1
 616 287 l 1
 627 276 l 1
 627 136 l 1
 464 -27 l 1
 464 -27 433 -19 387 -10 c 1
 387 -134 l 1
 344 -177 l 1
 333 -166 l 1
 333 1 l 1
 270 13 194 23 134 23 c 0
 94 23 44 -27 44 -27 c 1
 33 -16 l 1
 76 27 l 1
 76 27 126 77 166 77 c 0
 217 77 277 69 333 60 c 1
 333 275 l 1
 104 313 l 1
 93 324 l 1
 93 464 l 1
 256 627 l 1
 256 627 287 619 333 610 c 1
 333 684 l 1
 376 727 l 1
 387 716 l 1
 387 599 l 1
 450 587 526 577 586 577 c 0
 626 577 676 627 676 627 c 1
 687 616 l 1
333 550 m 1
 271 562 224 573 224 573 c 2
 223 573 154 503 147 496 c 1
 147 365 l 1
 333 334 l 1
 333 550 l 1
387 50 m 1
 449 38 496 27 496 27 c 2
 573 104 l 1
 573 235 l 1
 387 266 l 1
 387 50 l 1
EndSplineSet
EndChar
StartChar: plus
Encoding: 43 43 11
Width: 720
Flags: W
HStem: 273 54<136 333 387 584> 507 20G<356 387>
VStem: 333 54<116 273 327 484>
LayerCount: 2
Back
SplineSet
360 500 m 25
 360 100 l 1049
120 300 m 25
 600 300 l 1049
EndSplineSet
Fore
SplineSet
93 284 m 1
 136 327 l 1
 333 327 l 1
 333 484 l 1
 376 527 l 1
 387 516 l 1
 387 327 l 1
 616 327 l 1
 627 316 l 1
 584 273 l 1
 387 273 l 1
 387 116 l 1
 344 73 l 1
 333 84 l 1
 333 273 l 1
 104 273 l 1
 93 284 l 1
EndSplineSet
EndChar
StartChar: one
Encoding: 49 49 17
Width: 480
Flags: W
HStem: 407 20G<206 246> 407 20G<206 246>
VStem: 213 54<63 326>
LayerCount: 2
Back
SplineSet
150 60 m 25
 270 0 l 1
 330 60 l 1049
270 340 m 25
 210 400 l 25
 150 340 l 1049
240 370 m 9
 240 30 l 1025
EndSplineSet
Fore
SplineSet
123 44 m 1xa0
 166 87 l 1
 213 63 l 1
 213 354 l 1
 194 373 l 1
 134 313 l 1
 123 324 l 1
 226 427 l 1
 256 397 l 1
 267 386 l 1
 297 356 l 1
 267 326 l 1
 267 46 l 1
 261 39 l 1
 286 27 l 2
 286 27 301 42 303 44 c 2
 346 87 l 1
 357 76 l 1
 254 -27 l 1
 134 33 l 1
 123 44 l 1xa0
EndSplineSet
Substitution2: "Subscript forms-1" one.inferior
Substitution2: "Superscript forms-1" one.superior
EndChar
StartChar: Q
Encoding: 81 81 49
Width: 960
Flags: W
HStem: -27 54<360.027 564.768 761.225 857.869> -2 54<678.551 786.775> 465 21G<333 352> 573 54<473.858 524 531 628.198>
VStem: 123 54<198.262 382.447> 352 16<70 473 516 580> 483 54<116 534> 757 54<215.392 425.998>
AnchorPoint: "blwmark" 480 0 basechar 0
AnchorPoint: "abvmark" 540 700 basechar 0
LayerCount: 2
Back
SplineSet
660 0 m 25
 660 0 678 25 720 25 c 27
 762 25 786 0 828 0 c 27
 862 0 900 50 900 50 c 1049
360 550 m 1
 360 100 l 1025
512 550 m 1
 510 100 l 1025
360 600 m 1
 360 600 150 480 150 300 c 3
 150 134 264 0 480 0 c 3
 623 0 784 142 784 300 c 3
 784 512 673 600 540 600 c 3
 436 600 360 492 360 492 c 1025
EndSplineSet
Fore
SplineSet
387 616 m 1xbf
 344 573 l 2
 344 573 306 551 262 512 c 1
 217 461 177 394 177 316 c 0
 177 237 203 164 253 111 c 1
 308 59 390 27 496 27 c 0
 561 27 630 57 686 104 c 1
 729 155 757 218 757 284 c 0
 757 391 729 467 684 515 c 1
 643 553 589 572 531 573 c 1
 539 566 l 1
 537 116 l 1
 494 73 l 1
 483 84 l 1
 485 534 l 1
 524 573 l 1
 473 573 428 546 397 520 c 0
 391 512 387 508 387 508 c 1
 368 489 l 1
 368 70 l 1
 352 70 l 1
 352 473 l 1
 344 465 l 1
 333 476 l 1
 333 476 340 486 352 499 c 1
 352 580 l 1
 368 580 l 1
 368 516 l 1
 406 554 l 2
 438 586 492 627 556 627 c 0
 619 627 677 607 721 563 c 2
 732 552 l 2
 780 504 811 427 811 316 c 0
 811 240 774 168 719 113 c 2
 677 70 l 2
 618 11 538 -27 464 -27 c 0
 355 -27 272 8 216 63 c 2
 205 74 l 2
 151 128 123 202 123 284 c 0
 123 374 176 450 228 502 c 2
 271 544 l 2
 323 596 376 627 376 627 c 1
 387 616 l 1xbf
644 -27 m 1
 633 -16 l 1
 633 -16 635 -14 637 -12 c 2
 679 31 l 2
 686 38 705 52 736 52 c 0x7f
 778 52 802 27 844 27 c 0
 857 27 870 34 882 43 c 2
 916 77 l 1
 927 66 l 2
 927 66 921 58 911 48 c 2
 910 47 l 2
 868 4 l 2
 854 -10 832 -27 812 -27 c 0xbf
 770 -27 746 -2 704 -2 c 0x7f
 678 -2 662 -11 652 -19 c 2
 644 -27 l 1
EndSplineSet
EndChar
StartChar: W
Encoding: 87 87 55
Width: 1200
Flags: W
HStem: -27 21G<423 454 783 814> 123 54<170.338 232 248 326.566> 523 21G<33 63> 548 54<191.352 232> 573 54<106.919 207.259> 573 29<263.744 285>
VStem: 232 16<177 549> 363 54<266 524> 663 54<257 541> 933 54<424.961 489.059> 1023 54<257 356.992>
AnchorPoint: "blwmark" 660 0 basechar 0
AnchorPoint: "abvmark" 690 700 basechar 0
LayerCount: 2
Back
SplineSet
665 600 m 25
 715 550 l 1049
60 550 m 1
 60 550 101 600 149 600 c 3
 192 600 214 575 240 575 c 3
 274 575 300 600 301 600 c 1025
240 550 m 1
 240 175 l 1025
390 250 m 1
 390 540 l 1
 450 600 l 1025
120 100 m 17
 120 100 166 150 210 150 c 3
 449 150 450 0 450 0 c 1
 690 241.200195312 l 1
 690 575 l 1025
1080 600 m 1
 1080 600 960 516 960 450 c 3
 960 382.799804688 1050 378 1050 378 c 1
 1050 241.200195312 l 1
 810 0 l 1
 690 241.200195312 l 1049
EndSplineSet
Fore
SplineSet
1107 616 m 1xebe0
 1064 573 l 1xe7e0
 1064 573 1046 560 1024 541 c 1
 1003 517 987 490 987 466 c 0
 987 450 992 438 999 428 c 0
 1026 407 1066 405 1066 405 c 1
 1077 394 l 1
 1077 257 l 1
 837 16 l 1
 794 -27 l 1
 783 -16 l 1
 671 210 l 1
 477 16 l 1
 434 -27 l 1
 423 -16 l 1
 423 -16 423 -14 423 -10 c 0
 422 3 415 35 387 66 c 1
 353 96 294 123 194 123 c 0
 160 123 126 94 111 80 c 2
 104 73 l 1
 93 84 l 1
 93 84 94 86 96 88 c 2
 139 130 l 2
 150 141 189 177 226 177 c 0
 228 177 230 177 232 177 c 2
 232 549 l 2
 230 549 227 548 224 548 c 0xf3e0
 198 548 176 573 133 573 c 0
 105 573 80 556 63 541 c 2
 44 523 l 1
 33 534 l 1
 33 534 37 539 42 544 c 2
 84 586 l 2
 99 601 131 627 165 627 c 0xebe0
 208 627 230 602 256 602 c 0xe7e0
 290 602 316 627 317 627 c 2xebe0
 328 616 l 1
 285 573 l 2xe7e0
 284 573 270 559 248 552 c 1
 248 176 l 1
 340 172 393 145 424 114 c 2
 435 103 l 2
 459 79 470 52 474 35 c 1
 663 226 l 1
 663 559 l 1
 638 584 l 1
 681 627 l 1xebe0
 706 602 l 1
 717 591 l 1
 742 566 l 1
 717 541 l 1
 717 257 l 1
 829 31 l 1
 1023 226 l 1
 1023 352 l 1
 1008 354 980 362 962 380 c 2
 951 391 l 2
 941 401 933 415 933 434 c 0
 933 465 960 501 989 530 c 0
 989 531 l 2
 1032 573 l 2xe7e0
 1063 604 1096 627 1096 627 c 1
 1107 616 l 1xebe0
374 223 m 1
 363 234 l 1
 363 524 l 1
 466 627 l 1xebe0
 477 616 l 1
 417 556 l 1
 417 266 l 1
 374 223 l 1
EndSplineSet
EndChar
StartChar: a
Encoding: 97 97 65
Width: 480
Flags: W
HStem: 198 54<228.375 333> 407 20G<206 346> 407 20G<206 346>
VStem: 93 54<106 144> 333 54<27.2798 112 134 198 252 350>
AnchorPoint: "blwmark" 240 0 basechar 0
AnchorPoint: "abvmark" 270 500 basechar 0
LayerCount: 2
Back
SplineSet
150 220 m 17
 120 310 l 1
 210 400 l 1
 360 375 l 1
 360 30 l 1
 390 0 l 1
 450 60 l 1049
360 150 m 25
 210 0 l 1
 120 90 l 1
 120 160 l 1
 210 250 l 1
 210 250 232.928594192 225 300 225 c 3
 261.991563428 225 360 225 360 225 c 1033
EndSplineSet
Fore
SplineSet
134 193 m 1xd8
 123 204 l 1
 93 294 l 1
 226 427 l 1
 376 402 l 1
 387 391 l 1
 387 241 l 1
 387 166 l 1
 387 46 l 2
 387 37 400 33 406 27 c 1
 466 87 l 1
 477 76 l 1
 374 -27 l 1
 333 14 l 1
 333 112 l 1
 194 -27 l 1
 93 74 l 1
 93 144 l 1
 226 277 l 1
 226 276 l 2
 230 272 252 254 308 252 c 0
 310 252 313 252 316 252 c 2
 333 252 l 1
 333 350 l 1
 194 373 l 1
 147 326 l 1
 177 236 l 1
 134 193 l 1xd8
333 198 m 1
 276 198 l 2
 275 198 l 1
 219 200 198 220 195 223 c 2
 194 223 l 1
 147 176 l 1
 147 106 l 1
 226 27 l 1
 333 134 l 1
 333 198 l 1
EndSplineSet
Substitution2: "Stylistic alternates-1" ascript
EndChar
StartChar: m
Encoding: 109 109 77
Width: 720
Flags: W
HStem: 407 20G<96 136 266 306 506 546> 407 20G<96 136 266 306 506 546>
VStem: 93 54<44 266 288 356> 333 54<44 266 288 326> 573 54<44 326>
CounterMasks: 1 38
AnchorPoint: "blwmark" 360 0 basechar 0
AnchorPoint: "abvmark" 360 500 basechar 0
LayerCount: 2
Back
SplineSet
580 40 m 25
 620 0 l 1049
600 20 m 1
 600 310 l 25
 510 400 l 1
 360 250 l 1049
340 40 m 25
 380 0 l 1049
360 20 m 1
 360 310 l 25
 270 400 l 1
 120 250 l 1049
100 40 m 25
 140 0 l 1049
140 360 m 25
 100 400 l 1049
120 380 m 9
 120 20 l 1025
EndSplineSet
Fore
SplineSet
147 396 m 1xb8
 167 376 l 1
 147 356 l 1
 147 288 l 1
 286 427 l 1
 387 326 l 1
 387 288 l 1
 526 427 l 1
 627 326 l 1
 627 36 l 1
 647 16 l 1
 604 -27 l 1
 584 -7 l 1
 573 4 l 1
 553 24 l 1
 573 44 l 1
 573 294 l 2
 573 338 517 350 494 373 c 1
 387 266 l 1
 387 36 l 1
 407 16 l 1
 364 -27 l 1
 344 -7 l 1
 333 4 l 1
 313 24 l 1
 333 44 l 1
 333 234 l 1
 333 294 l 2
 333 338 277 350 254 373 c 1
 147 266 l 1
 147 36 l 1
 167 16 l 1
 124 -27 l 1
 104 -7 l 1
 93 4 l 1
 73 24 l 1
 93 44 l 1
 93 234 l 1
 93 364 l 1
 73 384 l 1
 116 427 l 1
 136 407 l 1
 147 396 l 1xb8
EndSplineSet
Substitution2: "Stylistic alternates-1" m.alt
EndChar
StartChar: s
Encoding: 115 115 83
Width: 480
Flags: W
HStem: 33 54<121.069 178.931> 313 54<286.868 358.214> 407 20G<236 267 406 447> 407 20G<236 267 406 447>
AnchorPoint: "blwmark" 240 0 basechar 0
AnchorPoint: "abvmark" 240 500 basechar 0
LayerCount: 2
Back
SplineSet
420 400 m 17
 420 400 358 340 330 340 c 24
 270 340 240 400 240 400 c 9
 120 280 l 1
 120 240 l 1
 360 160 l 1
 360 120 l 1
 240 0 l 17
 240 0 180 60 150 60 c 24
 120 60 60 0 60 0 c 1025
EndSplineSet
Fore
SplineSet
447 416 m 1xe0
 404 373 l 1
 404 373 342 313 314 313 c 0
 284 313 262 328 247 343 c 2
 236 354 l 2
 230 360 225 366 222 371 c 1
 147 296 l 1
 147 263 l 1
 376 187 l 1
 387 176 l 1
 387 136 l 1
 224 -27 l 1
 224 -27 164 33 134 33 c 0
 104 33 44 -27 44 -27 c 1
 33 -16 l 1
 76 27 l 1
 76 27 136 87 166 87 c 0
 196 87 256 27 256 27 c 1
 333 104 l 1
 333 137 l 1
 104 213 l 1
 93 224 l 1
 93 264 l 1
 256 427 l 1
 267 416 l 2
 267 416 273 404 284 391 c 0
 298 379 320 367 346 367 c 0
 374 367 436 427 436 427 c 1
 447 416 l 1xe0
EndSplineSet
EndChar
StartChar: braceright
Encoding: 125 125 93
Width: 360
Flags: W
HStem: -177 21G<33 64>
VStem: 153 54<-14 164 372 628>
LayerCount: 2
Back
SplineSet
60 700 m 25
 180 650 l 1
 180 350 l 25
 300 300 l 25
 180 180 l 25
 180 -30 l 1
 60 -150 l 1049
EndSplineSet
Fore
SplineSet
33 684 m 1
 76 727 l 1
 196 677 l 1
 207 666 l 1
 207 372 l 1
 316 327 l 1
 327 316 l 1
 207 196 l 1
 207 -14 l 1
 44 -177 l 1
 33 -166 l 1
 153 -46 l 1
 153 164 l 1
 268 280 l 1
 164 323 l 1
 153 334 l 1
 153 628 l 1
 44 673 l 1
 33 684 l 1
EndSplineSet
EndChar
StartChar: acute
Encoding: 180 180 99
Width: 480
Flags: W
HStem: 498 229
VStem: 303 54<649.608 684>
LayerCount: 2
Back
SplineSet
330 700 m 17
 330 600 180 525 180 525 c 1049
EndSplineSet
Fore
SplineSet
346 727 m 1
 357 716 l 1
 357 676 333 640 304 611 c 2
 262 568 l 2
 219 525 164 498 164 498 c 1
 153 509 l 1
 196 552 l 1
 196 552 233 570 270 601 c 1
 289 625 303 653 303 684 c 1
 346 727 l 1
EndSplineSet
EndChar
StartChar: ordmasculine
Encoding: 186 186 211
Width: 480
Flags: W
HStem: 173 54<76 404>
VStem: 93 54<404 564> 333 54<436 596>
LayerCount: 2
Back
SplineSet
240 700 m 25
 120 580 l 25
 120 420 l 25
 240 300 l 25
 360 420 l 25
 360 580 l 25
 240 700 l 25
60 200 m 25
 420 200 l 1049
EndSplineSet
Fore
SplineSet
33 184 m 1
 76 227 l 1
 436 227 l 1
 447 216 l 1
 404 173 l 1
 44 173 l 1
 33 184 l 1
224 673 m 1
 147 596 l 1
 147 436 l 2
 147 375 224 359 256 327 c 1
 333 404 l 1
 333 564 l 2
 333 625 256 641 224 673 c 1
93 564 m 1
 256 727 l 1
 387 596 l 1
 387 436 l 1
 224 273 l 1
 93 404 l 1
 93 564 l 1
EndSplineSet
EndChar
StartChar: multiply
Encoding: 215 215 223
Width: 720
Flags: W
HStem: 507 20G<116 160 592 627>
LayerCount: 2
Back
SplineSet
600 500 m 25
 120 100 l 1049
120 500 m 25
 600 100 l 1049
EndSplineSet
Fore
SplineSet
93 484 m 1
 136 527 l 1
 376 327 l 1
 616 527 l 1
 627 516 l 1
 584 473 l 1
 392 313 l 1
 616 127 l 1
 627 116 l 1
 584 73 l 1
 344 273 l 1
 104 73 l 1
 93 84 l 1
 136 127 l 1
 328 287 l 1
 104 473 l 1
 93 484 l 1
EndSplineSet
EndChar
StartChar: germandbls
Encoding: 223 223 131
Width: 600
Flags: W
HStem: -227 54<21.566 93.3405 385 426.513> -177 54<-102.126 -23.7456> 313 54<264.693 379.991> 407 20G<177 243.333 416 456> 407 20G<177 243.333 416 456> 563 54<316.95 388.249>
VStem: 123 54<-134 -58 3.70154 365 408 514> 453 54<-134 79>
AnchorPoint: "abvmark" 360 750 basechar 0
LayerCount: 2
Back
SplineSet
180 400 m 1
 180 400 269 340 322 340 c 3
 411 340 420 400 420 400 c 1
 480 340 l 1
 300 200 l 1
 480 100 l 1
 480 -150 l 1
 480 -150 424.000360522 -200 390 -200 c 1
 311 -113 150 0 150 0 c 1025
-150 -200 m 17
 -150 -200 -106 -150 -60 -150 c 8
 -35 -150 33 -200 60 -200 c 24
 86 -200 150 -150 150 -150 c 1
 150 530 l 1
 270 650 l 17
 270 650 300 590 360 590 c 24
 388 590 450 650 451 650 c 1033
EndSplineSet
Fore
SplineSet
-166 -227 m 1xa7
 -177 -216 l 1
 -177 -216 -174 -213 -171 -210 c 2
 -129 -167 l 2
 -116 -154 -80 -123 -44 -123 c 0x67
 -19 -123 49 -173 76 -173 c 0xa7
 88 -173 107 -163 123 -153 c 1
 123 -16 l 1
 123 514 l 1
 286 677 l 1
 297 666 l 1
 297 666 303 654 314 641 c 0
 329 628 350 617 376 617 c 0
 404 617 466 677 467 677 c 2
 478 666 l 1
 435 623 l 2
 434 623 372 563 344 563 c 0
 314 563 292 578 277 593 c 0
 266 604 l 2
 260 610 256 616 252 621 c 1
 177 546 l 1
 177 408 l 1
 196 427 l 1
 196 427 285 367 338 367 c 0
 361 367 378 371 391 376 c 0
 391 377 392 377 392 378 c 0
 393 382 393 384 393 384 c 1
 436 427 l 1
 507 356 l 1
 464 313 l 1
 338 215 l 1
 496 127 l 1
 507 116 l 1
 507 -134 l 1
 464 -177 l 1x77
 464 -177 408 -227 374 -227 c 1xa7
 363 -216 l 2
 359 -211 354 -206 349 -201 c 0
 295 -149 223 -92 177 -58 c 1
 177 -134 l 1
 134 -177 l 1x67
 134 -177 70 -227 44 -227 c 0xa7
 17 -227 -51 -177 -76 -177 c 0x67
 -108 -177 -138 -200 -154 -215 c 2
 -166 -227 l 1xa7
386 -153 m 2
 397 -164 l 2
 400 -167 404 -170 406 -173 c 0xa7
 420 -173 437 -165 453 -155 c 1
 453 79 l 1
 284 173 l 1
 273 184 l 1
 316 227 l 1
 448 330 l 1
 412 366 l 1
 386 340 l 2
 372 326 347 313 306 313 c 0
 265 313 203 349 177 365 c 1
 177 19 l 1
 211 -6 316 -83 385 -152 c 0
 386 -153 l 2
EndSplineSet
EndChar
StartChar: ae
Encoding: 230 230 189
Width: 660
Flags: W
HStem: 193 54<235.81 333> 407 20G<206 346 476 526> 407 20G<206 346 476 526>
VStem: 93 54<106 144> 333 54<134 193 247 296 318 350>
AnchorPoint: "blwmark" 360 0 basechar 0
AnchorPoint: "abvmark" 360 500 basechar 0
LayerCount: 2
Back
SplineSet
150 220 m 17
 120 310 l 1
 210 400 l 1
 360 375 l 1
 360 150 l 9
 210 0 l 1
 120 90 l 1
 120 160 l 1
 210 250 l 1
 210 250 232.928594192 220 300 220 c 3
 261.991563428 220 360 220 360 220 c 1033
600 120 m 1
 480 0 l 1
 360 80 l 25
 360 280 l 25
 480 400 l 25
 600 320 l 1
 360 80 l 1025
EndSplineSet
Fore
SplineSet
387 118 m 1x98
 571 302 l 1
 464 373 l 1
 387 296 l 1
 387 166 l 1
 387 118 l 1x98
389 98 m 1
 496 27 l 1
 616 147 l 1
 627 136 l 1
 464 -27 l 1
 344 53 l 1
 333 64 l 1
 333 112 l 1
 194 -27 l 1
 93 74 l 1
 93 144 l 1
 226 277 l 1
 231 272 l 2
 241 264 264 248 309 247 c 0
 311 247 314 247 316 247 c 2
 333 247 l 1
 333 264 l 1
 333 350 l 1
 194 373 l 1
 147 326 l 1
 177 236 l 1
 134 193 l 1
 123 204 l 1
 93 294 l 1
 226 427 l 1
 376 402 l 1
 387 391 l 1
 387 318 l 1
 496 427 l 1xd8
 616 347 l 1
 627 336 l 1
 389 98 l 1
276 193 m 2
 227 195 204 214 197 221 c 2
 194 223 l 1
 147 176 l 1
 147 106 l 1
 226 27 l 1
 333 134 l 1
 333 193 l 1
 276 193 l 2
EndSplineSet
EndChar
StartChar: dotlessi
Encoding: 305 305 97
Width: 240
Flags: W
HStem: 407 20G<96 136> 407 20G<96 136>
VStem: 93 54<44 356>
AnchorPoint: "blwmark" 120 0 basechar 0
AnchorPoint: "abvmark" 120 500 basechar 0
LayerCount: 2
Back
SplineSet
100 40 m 25
 140 0 l 25
 180 40 l 1049
140 360 m 25
 100 400 l 25
 60 360 l 1049
120 380 m 9
 120 20 l 1025
EndSplineSet
Fore
SplineSet
147 396 m 1xa0
 167 376 l 1
 147 356 l 1
 147 36 l 1
 156 27 l 1
 196 67 l 1
 207 56 l 1
 124 -27 l 1
 104 -7 l 1
 93 4 l 1
 73 24 l 1
 93 44 l 1
 93 364 l 1
 84 373 l 1
 44 333 l 1
 33 344 l 1
 116 427 l 1
 136 407 l 1
 147 396 l 1xa0
EndSplineSet
EndChar
StartChar: Rsmallcap
Encoding: 640 640 854
Width: 540
Flags: W
HStem: 407 20G<96 136 236 292> 407 20G<96 136 236 292>
VStem: 93 54<44 296 318 356>
AnchorPoint: "blwmark" 270 0 basechar 0
AnchorPoint: "abvmark" 240 500 basechar 0
LayerCount: 2
Back
SplineSet
100 40 m 25
 140 0 l 1049
100 400 m 25
 140 360 l 1049
120 380 m 9
 120 20 l 1025
480 60 m 25
 420 0 l 1
 420 0 399 85 360 125 c 24
 337 149 270 150 270 150 c 1025
240 120 m 1
 420 300 l 1
 240 400 l 1
 120 280 l 1049
EndSplineSet
Fore
SplineSet
224 93 m 1xa0
 213 104 l 1
 243 134 l 1
 286 177 l 1
 390 281 l 1
 224 373 l 2
 224 373 154 303 147 296 c 1
 147 36 l 1
 167 16 l 1
 124 -27 l 1
 104 -7 l 1
 93 4 l 1
 73 24 l 1
 93 44 l 1
 93 264 l 1
 93 364 l 1
 73 384 l 1
 116 427 l 1
 136 407 l 1
 147 396 l 1
 167 376 l 1
 147 356 l 1
 147 318 l 1
 256 427 l 1
 436 327 l 1
 447 316 l 1
 307 175 l 1
 328 173 360 168 375 153 c 0
 375 152 l 2
 386 141 l 2
 387 141 l 0
 415 112 433 61 442 33 c 1
 496 87 l 1
 507 76 l 1
 404 -27 l 1
 393 -16 l 1
 393 -16 374 61 339 103 c 1
 312 123 254 123 254 123 c 2
 224 93 l 1xa0
EndSplineSet
EndChar
StartChar: circumflex
Encoding: 710 710 100
Width: 480
Flags: W
HStem: 498 229
VStem: 213 54<640.497 684>
LayerCount: 2
Back
SplineSet
360 525 m 25
 360 525 240 600 240 700 c 1
 240 550 120 525 120 525 c 1025
EndSplineSet
Fore
SplineSet
387 541 m 1
 344 498 l 1
 344 498 317 515 289 543 c 2
 278 555 l 2
 264 569 248 587 237 606 c 1
 231 597 224 588 217 581 c 2
 175 539 l 2
 142 506 104 498 104 498 c 1
 93 509 l 1
 136 552 l 2
 136 552 158 557 183 574 c 1
 200 600 213 635 213 684 c 1
 256 727 l 1
 267 716 l 1
 267 666 296 622 326 591 c 0
 352 566 376 552 376 552 c 1
 387 541 l 1
EndSplineSet
EndChar
StartChar: hookcmb
Encoding: 777 777 381
Width: 0
Flags: W
HStem: 473 254 523 21G<-357 -326>
VStem: -147 54<636 650>
AnchorPoint: "abvmark" -240 500 mark 0
LayerCount: 2
Back
SplineSet
-240 500 m 1
 -120 620 l 1
 -120 675 l 1
 -270 700 l 25
 -360 610 l 1
 -330 550 l 1049
EndSplineSet
Fore
SplineSet
-256 473 m 1xa0
 -267 484 l 1
 -147 604 l 1
 -147 650 l 1
 -286 673 l 2
 -287 673 -329 630 -333 626 c 1
 -303 566 l 1
 -346 523 l 1x60
 -357 534 l 1
 -387 594 l 1
 -254 727 l 1
 -104 702 l 1
 -93 691 l 1
 -93 636 l 1
 -256 473 l 1xa0
EndSplineSet
EndChar
StartChar: endash
Encoding: 8211 8211 257
Width: 480
Flags: W
HStem: 173 54<76 404>
LayerCount: 2
Back
SplineSet
60 200 m 25
 420 200 l 1049
EndSplineSet
Fore
SplineSet
33 184 m 1
 76 227 l 1
 436 227 l 1
 447 216 l 1
 404 173 l 1
 44 173 l 1
 33 184 l 1
EndSplineSet
EndChar
StartChar: emdash
Encoding: 8212 8212 258
Width: 720
Flags: W
HStem: 173 54<76 644>
LayerCount: 2
Back
SplineSet
60 200 m 25
 660 200 l 1049
EndSplineSet
Fore
SplineSet
33 184 m 1
 76 227 l 1
 676 227 l 1
 687 216 l 1
 644 173 l 1
 44 173 l 1
 33 184 l 1
EndSplineSet
EndChar
StartChar: quoteleft
Encoding: 8216 8216 254
Width: 360
Flags: W
HStem: 408 194
VStem: 138 114
LayerCount: 2
Back
SplineSet
205 435 m 25
 165 475 l 1
 165 515 l 25
 225 575 l 1049
EndSplineSet
Fore
SplineSet
232 451 m 1
 189 408 l 1
 138 459 l 1
 138 499 l 1
 241 602 l 1
 252 591 l 1
 192 531 l 1
 192 491 l 1
 232 451 l 1
EndSplineSet
EndChar
StartChar: daggerdbl
Encoding: 8225 8225 263
Width: 480
Flags: W
HStem: 407 20G<56 96 296.769 396> 407 20G<56 96 296.769 396> 607 20G<266 297>
VStem: 207 66<-120.89 -1 61 339 401 520.89>
LayerCount: 2
Back
SplineSet
60 60 m 25
 120 0 l 25
 360 60 l 25
 420 0 l 1049
60 400 m 25
 120 340 l 25
 360 400 l 25
 420 340 l 1049
210 540 m 1
 210 540 227 516 228 500 c 24
 238 383 240 200 240 200 c 1
 240 200 244 383 252 500 c 24
 254 539 270 600 270 600 c 9
 210 540 l 1
270 -140 m 1
 270 -140 253 -116 252 -100 c 24
 242 17 240 200 240 200 c 1
 240 200 236 17 228 -100 c 24
 226 -139 210 -200 210 -200 c 9
 270 -140 l 1
EndSplineSet
Fore
SplineSet
297 -124 m 1xb0
 194 -227 l 1
 183 -216 l 1
 183 -216 199 -155 201 -116 c 0
 203 -81 205 -41 207 -1 c 1
 104 -27 l 1
 33 44 l 1
 76 87 l 1
 136 27 l 1
 209 45 l 1
 212 121 213 184 213 184 c 1
 213 184 212 256 209 339 c 1
 104 313 l 1
 33 384 l 1
 76 427 l 1
 136 367 l 1
 207 385 l 1
 205 420 204 454 201 484 c 0
 200 500 183 524 183 524 c 1
 286 627 l 1
 297 616 l 1
 297 616 281 555 279 516 c 0
 277 481 275 441 273 401 c 1
 376 427 l 1
 447 356 l 1
 404 313 l 1
 344 373 l 1
 271 355 l 1
 268 279 267 216 267 216 c 2
 267 216 268 144 271 61 c 1
 376 87 l 1
 447 16 l 1
 404 -27 l 1
 344 33 l 1
 273 15 l 1
 275 -20 276 -54 279 -84 c 0
 280 -100 297 -124 297 -124 c 1xb0
EndSplineSet
EndChar
StartChar: fraction
Encoding: 8260 8260 217
Width: 840
Flags: W
LayerCount: 2
Back
SplineSet
120 0 m 25
 720 700 l 1049
EndSplineSet
Fore
SplineSet
104 -27 m 1
 93 -16 l 1
 693 684 l 1
 736 727 l 1
 747 716 l 1
 147 16 l 1
 104 -27 l 1
EndSplineSet
EndChar
StartChar: logicaland
Encoding: 8743 8743 952
Width: 720
Flags: W
HStem: 407 20G<356 387> 407 20G<356 387>
LayerCount: 2
Back
SplineSet
120 0 m 25
 360 400 l 25
 600 0 l 1049
EndSplineSet
Fore
SplineSet
104 -27 m 1x80
 93 -16 l 1
 333 384 l 1
 376 427 l 1
 387 416 l 1
 627 16 l 1
 584 -27 l 1
 573 -16 l 1
 351 355 l 1
 147 16 l 1
 104 -27 l 1x80
EndSplineSet
EndChar
StartChar: bracketangleleft
Encoding: 9296 9296 930
Width: 480
Flags: W
HStem: -177 21G<393 424>
LayerCount: 2
Back
SplineSet
390 675 m 17
 390 675 293.433426836 553.835692694 270 525 c 0
 216 459 60 250 60 250 c 1
 60 250 245 60 300 0 c 0
 319.832255214 -22.129028541 420 -150 420 -150 c 1033
EndSplineSet
Fore
SplineSet
406 702 m 1
 417 691 l 1
 417 691 320 570 297 541 c 0
 243 475 87 266 87 266 c 1
 87 266 272 76 327 16 c 0
 347 -6 447 -134 447 -134 c 1
 404 -177 l 1
 393 -166 l 1
 393 -166 293 -38 273 -16 c 0
 218 44 33 234 33 234 c 1
 33 234 189 443 243 509 c 0
 266 538 363 659 363 659 c 1
 406 702 l 1
EndSplineSet
EndChar
StartChar: brackettopleft
Encoding: 11810 11810 922
Width: 360
Flags: W
HStem: 673 54<147 284>
VStem: 93 54<316 673>
LayerCount: 2
Back
SplineSet
300 700 m 25
 120 700 l 17
 120 300 l 1025
EndSplineSet
Fore
SplineSet
327 716 m 1
 284 673 l 1
 147 673 l 1
 147 316 l 1
 104 273 l 1
 93 284 l 1
 93 684 l 1
 136 727 l 1
 316 727 l 1
 327 716 l 1
EndSplineSet
EndChar
StartChar: a_o
Encoding: 42805 42805 341
Width: 720
Flags: W
HStem: 198 54<228.375 333> 407 20G<206 346 476 516> 407 20G<206 346 476 516>
VStem: 93 54<106 144> 333 54<104 112 134 198 252 296 318 350> 573 54<136 296>
CounterMasks: 1 1c
AnchorPoint: "blwmark" 360 0 basechar 0
AnchorPoint: "abvmark" 360 500 basechar 0
LayerCount: 2
Back
SplineSet
150 220 m 17
 120 310 l 1
 210 400 l 1
 360 375 l 1
 360 150 l 9
 210 0 l 1
 120 90 l 1
 120 160 l 1
 210 250 l 1
 210 250 232.928594192 225 300 225 c 3
 261.991563428 225 360 225 360 225 c 1033
480 400 m 25
 360 280 l 25
 360 120 l 25
 480 0 l 25
 600 120 l 25
 600 280 l 25
 480 400 l 25
EndSplineSet
Fore
SplineSet
276 198 m 2x9c
 275 198 l 0
 219 200 198 220 195 223 c 2
 194 223 l 1
 147 176 l 1
 147 106 l 1
 226 27 l 1
 333 134 l 1
 333 198 l 1
 276 198 l 2x9c
333 112 m 1
 194 -27 l 1
 93 74 l 1
 93 144 l 1
 226 277 l 1
 226 276 l 2
 230 272 252 254 308 252 c 0
 310 252 313 252 316 252 c 2
 333 252 l 1
 333 264 l 1
 333 350 l 1
 194 373 l 1
 147 326 l 1
 177 236 l 1
 134 193 l 1
 123 204 l 1
 93 294 l 1
 226 427 l 1
 376 402 l 1
 387 391 l 1
 387 318 l 1
 496 427 l 1xdc
 627 296 l 1
 627 136 l 1
 464 -27 l 1
 333 104 l 1
 333 112 l 1
387 166 m 1
 387 136 l 2
 387 75 464 59 496 27 c 1
 573 104 l 1
 573 264 l 2
 573 325 496 341 464 373 c 1
 387 296 l 1
 387 166 l 1
EndSplineSet
LCarets2: 1 360 
Ligature2: "Historic ligatures-1" a o
EndChar
StartChar: a_u
Encoding: 42807 42807 344
Width: 720
Flags: W
HStem: 198 54<228.375 333> 407 20G<206 346 576 616> 407 20G<206 346 576 616>
VStem: 93 54<106 144> 333 54<106 112 134 198 252 350> 573 54<46 112 134 356>
CounterMasks: 1 1c
AnchorPoint: "blwmark" 360 0 basechar 0
AnchorPoint: "abvmark" 360 500 basechar 0
LayerCount: 2
Back
SplineSet
360 150 m 9
 210 0 l 1
 120 90 l 1
 120 160 l 1
 210 250 l 1
 210 250 232.928594192 225 300 225 c 3
 261.991563428 225 360 225 360 225 c 1033
690 60 m 25
 630 0 l 1
 600 30 l 17
 600 380 l 1025
620 360 m 25
 580 400 l 1049
600 150 m 25
 450 0 l 25
 360 90 l 1
 360 375 l 17
 210 400 l 1
 120 310 l 1
 150 220 l 1033
EndSplineSet
Fore
SplineSet
706 87 m 1xdc
 717 76 l 1
 614 -27 l 1
 573 14 l 1
 573 112 l 1
 434 -27 l 1
 333 74 l 1
 333 112 l 1
 194 -27 l 1
 93 74 l 1
 93 144 l 1
 226 277 l 1
 226 276 l 2
 230 272 252 254 308 252 c 0
 310 252 313 252 316 252 c 2
 333 252 l 1
 333 350 l 1
 194 373 l 2
 193 373 151 330 147 326 c 1
 177 236 l 1
 134 193 l 1
 123 204 l 1
 93 294 l 1
 226 427 l 1
 376 402 l 1
 387 391 l 1
 387 241 l 1
 387 166 l 1
 387 106 l 1
 466 27 l 1
 573 134 l 1
 573 364 l 1
 553 384 l 1
 596 427 l 1
 616 407 l 1
 627 396 l 1
 647 376 l 1
 627 356 l 1
 627 166 l 1
 627 46 l 1
 646 27 l 1
 706 87 l 1xdc
333 134 m 1
 333 198 l 1
 276 198 l 2
 275 198 l 1
 219 200 198 220 195 223 c 2
 194 223 l 1
 147 176 l 1
 147 106 l 1
 226 27 l 1
 333 134 l 1
EndSplineSet
LCarets2: 1 360 
Ligature2: "Historic ligatures-1" a u
EndChar
StartChar: o_o
Encoding: 42831 42831 669
Width: 720
Flags: W
HStem: 407 20G<236 276 476 516> 407 20G<236 276 476 516>
VStem: 93 54<104 264> 333 54<104 296> 573 54<136 296>
CounterMasks: 1 38
AnchorPoint: "blwmark" 360 0 basechar 0
AnchorPoint: "abvmark" 360 500 basechar 0
LayerCount: 2
Back
SplineSet
480 400 m 25
 360 280 l 25
 360 120 l 25
 480 0 l 25
 600 120 l 25
 600 280 l 25
 480 400 l 25
240 400 m 25
 120 280 l 25
 120 120 l 25
 240 0 l 25
 360 120 l 25
 360 280 l 25
 240 400 l 25
EndSplineSet
Fore
SplineSet
224 373 m 1x38
 147 296 l 1
 147 136 l 2
 147 75 224 59 256 27 c 1
 333 104 l 1
 333 264 l 2
 333 325 256 341 224 373 c 1x38
93 264 m 1
 256 427 l 1
 376 307 l 1
 496 427 l 1xb8
 627 296 l 1
 627 136 l 1
 464 -27 l 1
 344 93 l 1
 224 -27 l 1
 93 104 l 1
 93 264 l 1
387 136 m 2
 387 75 464 59 496 27 c 1
 573 104 l 1
 573 264 l 2
 573 325 496 341 464 373 c 1
 387 296 l 1
 387 136 l 2
EndSplineSet
LCarets2: 1 360 
Ligature2: "Historic ligatures-1" o o
EndChar
StartChar: qbar
Encoding: 42839 42839 871
Width: 480
Flags: W
HStem: -177 21G<333 364> -102 54<256 333 387 434> 325 54<280.294 325.904> 407 20G<236 267 356 387> 407 20G<236 267 356 387>
VStem: 93 54<136 264> 333 54<-134 -102 -48 82 104 354 382.047 384>
AnchorPoint: "abvmark" 270 500 basechar 0
LayerCount: 2
Back
SplineSet
450 -75 m 25
 240 -75 l 1049
360 120 m 9
 240 0 l 25
 120 120 l 25
 120 280 l 25
 240 400 l 1
 240 400 264 352 300 352 c 24
 336 352 360 400 360 400 c 9
 360 -150 l 1049
EndSplineSet
Fore
SplineSet
333 104 m 1xe6
 333 354 l 1
 323 344 l 2
 313 334 300 325 284 325 c 0
 269 325 256 334 246 344 c 0
 234 355 l 2
 229 360 226 365 222 370 c 1
 147 296 l 1
 147 136 l 1
 256 27 l 1
 333 104 l 1xe6
333 82 m 1
 224 -27 l 1
 93 104 l 1
 93 264 l 1
 256 427 l 1
 267 416 l 1
 267 416 273 404 283 393 c 0
 293 385 303 379 316 379 c 0
 322 379 327 380 332 382 c 0
 333 383 333 384 333 384 c 1
 376 427 l 1xf6
 387 416 l 1
 387 -48 l 1
 466 -48 l 1
 477 -59 l 1
 434 -102 l 1
 387 -102 l 1
 387 -134 l 1
 344 -177 l 1
 333 -166 l 1
 333 -102 l 1
 224 -102 l 1
 213 -91 l 1
 256 -48 l 1
 333 -48 l 1
 333 82 l 1
EndSplineSet
EndChar
StartChar: rrotunda
Encoding: 42843 42843 96
Width: 360
Flags: W
HStem: 407 20G<116 160> 407 20G<116 160>
VStem: 33 294
AnchorPoint: "blwmark" 180 0 basechar 0
AnchorPoint: "abvmark" 180 500 basechar 0
LayerCount: 2
Back
SplineSet
300 60 m 25
 240 0 l 1
 120 180 l 25
 240 300 l 1
 120 400 l 1
 60 340 l 1049
EndSplineSet
Fore
SplineSet
316 87 m 1xa0
 327 76 l 1
 224 -27 l 1
 213 -16 l 1
 93 164 l 1
 212 283 l 1
 104 373 l 2
 104 373 89 358 87 356 c 2
 44 313 l 1
 33 324 l 1
 136 427 l 1
 256 327 l 1
 267 316 l 1
 147 196 l 1
 258 29 l 1
 316 87 l 1xa0
EndSplineSet
EndChar
StartChar: thornbar
Encoding: 42853 42853 874
Width: 480
Flags: W
HStem: -177 21G<93 124> 407 20G<236 276> 407 20G<236 276> 448 54<46 93 147 224>
VStem: 93 54<-134 16 82 296 318 448 502 581> 333 54<136 296>
AnchorPoint: "abvmark" 240 700 basechar 0
LayerCount: 2
Back
SplineSet
60 0 m 1
 60 0 115 60 150 60 c 0
 185 60 240 0 240 0 c 9
 360 120 l 1
 360 280 l 25
 240 400 l 1
 120 280 l 1049
100 625 m 25
 140 585 l 1049
120 605 m 1
 120 -150 l 1025
240 475 m 25
 30 475 l 1049
EndSplineSet
Fore
SplineSet
267 491 m 1xdc
 224 448 l 1
 147 448 l 1
 147 318 l 1
 256 427 l 1
 387 296 l 1
 387 136 l 1
 224 -27 l 1
 213 -16 l 1
 213 -16 212 -15 211 -14 c 0
 196 1 170 24 147 31 c 1
 147 -134 l 1
 104 -177 l 1
 93 -166 l 1
 93 16 l 1
 81 7 69 -3 60 -11 c 2
 44 -27 l 1
 33 -16 l 1
 33 -16 36 -13 41 -8 c 2
 83 35 l 2
 86 38 89 40 93 44 c 2
 93 264 l 1
 93 448 l 1
 14 448 l 1
 3 459 l 1
 46 502 l 1
 93 502 l 1
 93 589 l 1
 73 609 l 1
 116 652 l 1
 136 632 l 1
 147 621 l 1
 167 601 l 1
 147 581 l 1
 147 502 l 1
 256 502 l 1
 267 491 l 1xdc
147 296 m 1
 147 82 l 1
 154 85 160 87 166 87 c 0
 193 87 232 50 248 34 c 2
 256 27 l 1
 333 104 l 1
 333 264 l 2
 333 325 256 341 224 373 c 1
 147 296 l 1
EndSplineSet
EndChar
StartChar: thornbarbelow
Encoding: 42855 42855 875
Width: 480
Flags: W
HStem: -177 21G<93 124> -102 54<46 93 147 224> 73 54<147.327 208.654> 407 20G<236 276> 407 20G<236 276>
VStem: 93 54<-134 -102 -48 59 123 296 318 581> 333 54<76 264>
AnchorPoint: "abvmark" 240 700 basechar 0
LayerCount: 2
Back
SplineSet
240 -75 m 25
 30 -75 l 1049
120 280 m 25
 240 400 l 1
 360 280 l 1
 360 60 l 1
 300 0 l 1
 300 0 247 100 150 100 c 0
 115 100 60 50 60 50 c 1025
100 625 m 25
 140 585 l 1049
120 605 m 1
 120 -150 l 1025
EndSplineSet
Fore
SplineSet
73 609 m 1xf6
 116 652 l 1
 136 632 l 1
 147 621 l 1
 167 601 l 1
 147 581 l 1
 147 318 l 1
 256 427 l 1
 387 296 l 1
 387 76 l 1
 284 -27 l 1
 273 -16 l 1
 273 -16 262 5 241 27 c 0
 218 49 187 69 147 73 c 1
 147 -48 l 1
 256 -48 l 1
 267 -59 l 1
 224 -102 l 1
 147 -102 l 1
 147 -134 l 1
 104 -177 l 1
 93 -166 l 1
 93 -102 l 1
 14 -102 l 1
 3 -91 l 1
 46 -48 l 1
 93 -48 l 1
 93 59 l 1
 67 44 44 23 44 23 c 2
 33 34 l 1
 76 77 l 1
 76 77 82 83 93 91 c 1
 93 264 l 1
 93 589 l 1
 73 609 l 1xf6
147 296 m 1
 147 123 l 1
 154 125 160 127 166 127 c 0
 215 127 253 101 278 76 c 2
 289 64 l 2
 302 51 312 39 318 30 c 1
 333 44 l 1
 333 264 l 1
 224 373 l 1
 147 296 l 1
EndSplineSet
EndChar
StartChar: mum
Encoding: 42867 42867 587
Width: 989
Flags: W
HStem: -177 21G<603 635.633> -27 54<806 890.66> 407 20G<96 136 266 306 506 546> 407 20G<96 136 266 306 506 546>
VStem: 93 54<44 266 288 356> 333 54<44 266 288 326> 573 54<44 326> 783 54<47.7563 178>
LayerCount: 2
Back
SplineSet
600 20 m 1
 600 310 l 25
 510 400 l 1
 360 250 l 1041
340 40 m 9
 380 0 l 1041
360 20 m 1
 360 310 l 25
 270 400 l 1
 120 250 l 1041
100 40 m 9
 140 0 l 1041
140 360 m 9
 100 400 l 1041
120 380 m 9
 120 20 l 1025
750 225 m 1
 810 200 l 1
 810 200 810 139 810 100 c 27
 810 3 630 -150 630 -150 c 1025
930 50 m 17
 930 50 907 0 840 0 c 3
 727 0 680 60 680 60 c 9
 620 0 l 25
 580 40 l 1025
EndSplineSet
Fore
SplineSet
946 77 m 1xef
 957 66 l 1
 957 66 952 55 941 44 c 2
 899 2 l 2
 885 -12 861 -27 824 -27 c 0
 803 -27 785 -24 768 -21 c 1
 749 -45 727 -67 709 -85 c 2
 667 -128 l 2
 637 -158 614 -177 614 -177 c 1
 603 -166 l 1
 646 -123 l 1
 646 -123 658 -112 676 -95 c 0
 698 -71 723 -44 743 -15 c 1
 703 -2 680 18 670 28 c 2
 664 33 l 1
 604 -27 l 1
 584 -7 l 1
 573 4 l 1
 553 24 l 1
 573 44 l 1
 573 294 l 2
 573 338 517 350 494 373 c 1
 387 266 l 1
 387 36 l 1
 407 16 l 1
 364 -27 l 1
 344 -7 l 1
 333 4 l 1
 313 24 l 1
 333 44 l 1
 333 234 l 1
 333 294 l 2
 333 338 277 350 254 373 c 1
 147 266 l 1
 147 36 l 1
 167 16 l 1
 124 -27 l 1
 104 -7 l 1
 93 4 l 1
 73 24 l 1
 93 44 l 1
 93 234 l 1
 93 364 l 1
 73 384 l 1
 116 427 l 1
 136 407 l 1
 147 396 l 1
 167 376 l 1
 147 356 l 1
 147 288 l 1
 286 427 l 1
 387 326 l 1
 387 288 l 1
 526 427 l 1
 627 326 l 1
 627 36 l 1
 636 27 l 1
 696 87 l 1
 707 76 l 1
 707 75 l 0
 719 65 740 50 773 39 c 1
 779 55 783 70 783 84 c 2
 783 178 l 1
 734 198 l 1
 723 209 l 1
 766 252 l 1
 826 227 l 1
 837 216 l 1
 837 116 l 2
 837 90 824 61 806 31 c 1
 821 28 838 27 856 27 c 0
 878 27 894 33 908 40 c 1
 946 77 l 1xef
EndSplineSet
EndChar
StartChar: g_p
Encoding: 60114 60114 501
Width: 720
Flags: W
HStem: -227 54<230.575 309.044> -177 54<107.874 189.425> 325 54<277.466 323.046> 407 20G<236 267 356 387 476 516> 407 20G<236 267 356 387 476 516>
VStem: 93 54<136 264> 333 54<-133 16 82 112 134 296 318 356> 573 54<136 296>
CounterMasks: 1 07
LayerCount: 2
Back
SplineSet
300 0 m 1
 300 0 355 60 390 60 c 0
 425 60 480 0 480 0 c 9
 600 120 l 1
 600 280 l 25
 480 400 l 1
 360 280 l 1049
60 -200 m 17
 60 -200 104 -150 150 -150 c 8
 201 -150 219 -200 270 -200 c 24
 310 -200 360 -150 360 -150 c 9
 360 400 l 1
 360 400 330 352 300 352 c 24
 270 352 240 400 240 400 c 1
 120 280 l 25
 120 120 l 25
 210 0 l 1
 360 150 l 1049
360 -150 m 9
 420 -200 l 1025
EndSplineSet
Fore
SplineSet
333 356 m 1x27
 322 346 l 2
 311 335 298 325 284 325 c 0
 270 325 257 335 246 346 c 2
 235 357 l 2
 230 362 226 367 223 371 c 1
 147 296 l 1
 147 136 l 1
 227 28 l 1
 333 134 l 1
 333 264 l 1
 333 356 l 1x27
333 112 m 1
 194 -27 l 1
 183 -16 l 1
 93 104 l 1
 93 264 l 1
 256 427 l 1
 267 416 l 1
 267 416 273 405 283 394 c 0
 292 386 305 379 316 379 c 0
 322 379 326 380 332 383 c 0
 333 384 l 1
 376 427 l 1
 387 416 l 1
 387 318 l 1
 496 427 l 1
 627 296 l 1
 627 136 l 1
 464 -27 l 1
 453 -16 l 1
 453 -16 452 -15 451 -14 c 0
 436 1 410 24 387 31 c 1
 387 -133 l 1
 436 -173 l 1
 447 -184 l 1
 404 -227 l 1xb7
 344 -177 l 1x67
 344 -177 294 -227 254 -227 c 0xa7
 203 -227 185 -177 134 -177 c 0x67
 102 -177 72 -200 56 -215 c 2
 44 -227 l 1xa7
 33 -216 l 1
 33 -216 36 -213 39 -210 c 2
 81 -167 l 2
 94 -154 130 -123 166 -123 c 0x67
 217 -123 235 -173 286 -173 c 0xa7
 302 -173 318 -165 333 -156 c 1
 333 16 l 1
 321 7 309 -3 300 -11 c 2
 284 -27 l 1
 273 -16 l 1
 273 -16 276 -13 281 -8 c 2
 323 35 l 2
 326 38 329 40 333 44 c 2
 333 112 l 1
387 296 m 1
 387 82 l 1
 394 85 400 87 406 87 c 0
 433 87 472 50 488 34 c 2
 496 27 l 1
 573 104 l 1
 573 264 l 2
 573 325 496 341 464 373 c 1
 387 296 l 1
EndSplineSet
LCarets2: 1 360 
Ligature2: "Historic ligatures-1" g p
EndChar
StartChar: longs_l
Encoding: 60323 60323 330
Width: 540
GlyphClass: 3
Flags: W
HStem: -227 54<22.5015 90.7506> -177 54<-102.126 -24.4241> 598 54<296.557 384>
VStem: 123 54<-134 514> 393 54<44 581>
LayerCount: 2
Back
SplineSet
-150 -200 m 17
 -150 -200 -106 -150 -60 -150 c 8
 -48 -150 45 -200 60 -200 c 24
 79 -200 150 -150 150 -150 c 1
 150 530 l 1
 270 650 l 1
 270 650 352 625 400 625 c 9
 440 585 l 1025
400 40 m 25
 440 0 l 25
 480 40 l 1049
420 605 m 9
 420 20 l 1049
EndSplineSet
Fore
SplineSet
-166 -227 m 1xb8
 -177 -216 l 1
 -177 -216 -174 -213 -171 -210 c 2
 -129 -167 l 2
 -116 -154 -80 -123 -44 -123 c 0x78
 -32 -123 61 -173 76 -173 c 0xb8
 85 -173 106 -162 123 -151 c 1
 123 514 l 1
 286 677 l 1
 286 677 368 652 416 652 c 1
 441 626 l 1
 447 621 l 1
 467 601 l 1
 447 581 l 1
 447 36 l 1
 456 27 l 1
 496 67 l 1
 507 56 l 1
 424 -27 l 1
 404 -7 l 1
 393 4 l 1
 373 24 l 1
 393 44 l 1
 393 589 l 1
 384 598 l 1
 336 598 254 623 254 623 c 1
 177 546 l 1
 177 -134 l 1
 134 -177 l 1x78
 134 -177 63 -227 44 -227 c 0xb8
 29 -227 -64 -177 -76 -177 c 0x78
 -108 -177 -138 -200 -154 -215 c 2
 -166 -227 l 1xb8
EndSplineSet
LCarets2: 1 360 
Ligature2: "Ligatures-1" longs l
EndChar
StartChar: longs_longs_l
Encoding: 60328 60328 332
Width: 780
GlyphClass: 3
Flags: W
HStem: -227 54<21.566 93.3405 247.834 336.679> -177 54<-102.126 -23.7456> 598 54<536.557 624>
VStem: 123 54<-129.885 514> 363 54<-134 515.75> 633 54<44 581>
LayerCount: 2
Back
SplineSet
150 -150 m 1
 187 -150 262 -200 300 -200 c 0
 334 -200 390 -150 390 -150 c 1
 390 530 l 1
 510 650 l 17
 510 650 592 625 640 625 c 1
 680 585 l 1025
-150 -200 m 17
 -150 -200 -106 -150 -60 -150 c 8
 -35 -150 33 -200 60 -200 c 24
 86 -200 150 -150 150 -150 c 1
 150 530 l 1
 270 650 l 1
 270 650 337 530 390 530 c 1025
640 40 m 25
 680 0 l 25
 720 40 l 1049
660 605 m 9
 660 20 l 1049
EndSplineSet
Fore
SplineSet
-166 -227 m 1xbc
 -177 -216 l 1
 -177 -216 -174 -213 -171 -210 c 2
 -129 -167 l 2
 -116 -154 -80 -123 -44 -123 c 0x7c
 -19 -123 49 -173 76 -173 c 0xbc
 88 -173 107 -163 123 -153 c 1
 123 514 l 1
 286 677 l 1
 297 666 l 1
 297 666 323 618 356 583 c 0
 372 568 390 557 406 557 c 1
 526 677 l 1
 526 677 608 652 656 652 c 1
 676 632 l 1
 687 621 l 1
 707 601 l 1
 687 581 l 1
 687 36 l 1
 696 27 l 1
 736 67 l 1
 747 56 l 1
 664 -27 l 1
 613 24 l 1
 633 44 l 1
 633 589 l 1
 624 598 l 1
 576 598 494 623 494 623 c 1
 417 546 l 1
 417 -134 l 1
 374 -177 l 1x7c
 374 -177 318 -227 284 -227 c 0xbc
 246 -227 171 -177 134 -177 c 1x7c
 134 -177 70 -227 44 -227 c 0xbc
 17 -227 -51 -177 -76 -177 c 0x7c
 -108 -177 -138 -200 -154 -215 c 2
 -166 -227 l 1xbc
363 505 m 1
 349 509 334 520 320 534 c 2
 309 545 l 2
 285 569 264 601 252 620 c 1
 177 546 l 1
 177 -124 l 1
 216 -132 282 -173 316 -173 c 0xbc
 330 -173 348 -164 363 -155 c 1
 363 505 l 1
EndSplineSet
LCarets2: 2 360 600 
Ligature2: "Ligatures-1" longs longs l
EndChar
StartChar: h_longs
Encoding: 60333 60333 515
Width: 509
Flags: W
HStem: -227 54<21.566 93.3405> -177 54<-102.126 -23.7456> 407 20G<296 336> 407 20G<296 336> 563 54<316.95 388.249>
VStem: 123 54<-134 266 288 514> 363 54<44 326>
LayerCount: 2
Back
SplineSet
370 40 m 25
 410 0 l 1049
390 20 m 25
 390 310 l 25
 300 400 l 1
 150 250 l 1049
-150 -200 m 17
 -150 -200 -106 -150 -60 -150 c 8
 -35 -150 33 -200 60 -200 c 24
 86 -200 150 -150 150 -150 c 1
 150 530 l 1
 270 650 l 17
 270 650 300 590 360 590 c 24
 388 590 450 650 451 650 c 1033
EndSplineSet
Fore
SplineSet
-166 -227 m 1x8e
 -177 -216 l 1
 -177 -216 -174 -213 -171 -210 c 2
 -129 -167 l 2
 -116 -154 -80 -123 -44 -123 c 0x4e
 -19 -123 49 -173 76 -173 c 0x8e
 88 -173 107 -163 123 -153 c 1
 123 234 l 1
 123 514 l 1
 286 677 l 1
 297 666 l 1
 297 666 303 654 314 641 c 0
 329 628 350 617 376 617 c 0
 404 617 466 677 467 677 c 2
 478 666 l 1
 435 623 l 2
 434 623 372 563 344 563 c 0
 314 563 292 578 277 593 c 0
 266 604 l 2
 260 610 256 616 252 621 c 1
 177 546 l 1
 177 288 l 1
 316 427 l 1
 417 326 l 1
 417 36 l 1
 437 16 l 1
 394 -27 l 1
 374 -7 l 1
 369 -1 l 1
 343 24 l 1
 363 44 l 1
 363 294 l 2
 363 338 307 350 284 373 c 1
 177 266 l 1
 177 -134 l 1
 134 -177 l 1x6e
 134 -177 70 -227 44 -227 c 0x8e
 17 -227 -51 -177 -76 -177 c 0x4e
 -108 -177 -138 -200 -154 -215 c 2
 -166 -227 l 1x8e
EndSplineSet
LCarets2: 1 270 
Ligature2: "Historic ligatures-1" h longs
EndChar
StartChar: g_g
Encoding: 61137 61137 497
Width: 720
Flags: W
HStem: -227 54<231.566 303.341 467.218 546.679> -177 54<107.874 186.254> 325 54<280.271 325.926 520.271 565.926> 407 20G<236 267 356 387 476 507 596 627> 407 20G<236 267 356 387 476 507 596 627>
VStem: 93 54<104 264> 333 54<-120 51 104 296 318 354 382.047 384> 573 54<-134 82 104 354 382.047 384>
CounterMasks: 1 07
LayerCount: 2
Back
SplineSet
360 -150 m 8
 383 -130 472 -200 510 -200 c 0
 544 -200 600 -150 600 -150 c 9
 600 400 l 1
 600 400 576 352 540 352 c 24
 504 352 480 400 480 400 c 1
 360 280 l 25
 360 120 l 25
 480 0 l 25
 600 120 l 1041
60 -200 m 17
 60 -200 104 -150 150 -150 c 8
 175 -150 243 -200 270 -200 c 24
 296 -200 360 -150 360 -150 c 9
 360 400 l 1
 360 400 336 352 300 352 c 24
 264 352 240 400 240 400 c 1
 120 280 l 25
 120 120 l 25
 240 0 l 25
 360 120 l 1041
EndSplineSet
Fore
SplineSet
333 354 m 1x27
 323 344 l 2
 313 334 299 325 284 325 c 0
 269 325 256 334 246 344 c 2
 234 355 l 2
 229 360 225 365 222 370 c 1
 147 296 l 1
 147 136 l 2
 147 75 224 59 256 27 c 1
 333 104 l 1
 333 264 l 1
 333 354 l 1x27
333 82 m 1
 224 -27 l 1
 93 104 l 1
 93 264 l 1
 256 427 l 1
 267 416 l 1
 267 416 273 405 283 393 c 0
 292 385 303 379 316 379 c 0
 322 379 326 380 332 382 c 0
 333 383 333 384 333 384 c 1
 376 427 l 1
 387 416 l 1
 387 318 l 1
 496 427 l 1
 507 416 l 1
 507 416 513 405 523 393 c 0
 532 385 543 379 556 379 c 0
 562 379 566 380 572 382 c 0
 573 383 573 384 573 384 c 1
 616 427 l 1
 627 416 l 1
 627 -134 l 1
 584 -177 l 1x77
 584 -177 528 -227 494 -227 c 0xa7
 456 -227 367 -157 344 -177 c 1x67
 344 -177 280 -227 254 -227 c 0xa7
 227 -227 159 -177 134 -177 c 0x67
 102 -177 72 -200 56 -215 c 2
 44 -227 l 1xa7
 33 -216 l 1
 33 -216 36 -213 39 -210 c 2
 81 -167 l 2
 94 -154 130 -123 166 -123 c 0x67
 191 -123 259 -173 286 -173 c 0xa7
 298 -173 317 -163 333 -153 c 1
 333 82 l 1
573 354 m 1
 563 344 l 2
 553 334 539 325 524 325 c 0
 509 325 496 334 486 344 c 2
 474 355 l 2
 469 360 465 365 462 370 c 1
 387 296 l 1
 387 136 l 2
 387 75 464 59 496 27 c 1
 573 104 l 1
 573 354 l 1
573 82 m 1
 464 -27 l 1
 387 51 l 1
 387 -120 l 1
 420 -120 493 -173 526 -173 c 0xa7
 540 -173 558 -164 573 -155 c 1
 573 82 l 1
EndSplineSet
LCarets2: 1 360 
Ligature2: "Historic ligatures-1" g g
EndChar
StartChar: a_g
Encoding: 61349 61349 338
Width: 720
GlyphClass: 3
Flags: W
HStem: -227 54<471.566 543.341> -177 54<347.874 426.254> 198 54<228.375 333> 325 54<520.271 565.926> 407 20G<206 346 476 507 596 627> 407 20G<206 346 476 507 596 627>
VStem: 93 54<106 144> 333 54<104 112 134 198 252 296 318 350> 573 54<-134 82 104 354 382.047 384>
CounterMasks: 1 0380
LayerCount: 2
Back
SplineSet
150 220 m 17
 120 310 l 1
 210 400 l 1
 360 375 l 1
 360 150 l 9
 210 0 l 1
 120 90 l 1
 120 160 l 1
 210 250 l 1
 210 250 232.928594192 225 300 225 c 3
 261.991563428 225 360 225 360 225 c 1033
300 -200 m 17
 300 -200 344 -150 390 -150 c 8
 415 -150 483 -200 510 -200 c 24
 536 -200 600 -150 600 -150 c 9
 600 400 l 1
 600 400 576 352 540 352 c 24
 504 352 480 400 480 400 c 1
 360 280 l 25
 360 120 l 25
 480 0 l 25
 600 120 l 1041
EndSplineSet
Fore
SplineSet
573 354 m 1x3380
 563 344 l 2
 553 334 539 325 524 325 c 0
 509 325 496 334 486 344 c 2
 474 355 l 2
 469 360 465 365 462 370 c 1
 387 296 l 1
 387 166 l 1
 387 136 l 2
 387 75 464 59 496 27 c 1
 573 104 l 1
 573 354 l 1x3380
573 82 m 1
 464 -27 l 1
 333 104 l 1
 333 112 l 1
 194 -27 l 1
 93 74 l 1
 93 144 l 1
 226 277 l 1
 226 276 l 2
 230 272 252 254 308 252 c 0
 310 252 313 252 316 252 c 2
 333 252 l 1
 333 264 l 1
 333 350 l 1
 194 373 l 1
 147 326 l 1
 177 236 l 1
 134 193 l 1
 123 204 l 1
 93 294 l 1
 226 427 l 1
 376 402 l 1
 387 391 l 1
 387 318 l 1
 496 427 l 1
 507 416 l 1
 507 416 513 405 523 393 c 0
 532 385 543 379 556 379 c 0
 562 379 566 380 572 382 c 0
 573 383 573 384 573 384 c 1
 616 427 l 1
 627 416 l 1
 627 -134 l 1
 584 -177 l 1x7b80
 584 -177 520 -227 494 -227 c 0xb380
 467 -227 399 -177 374 -177 c 0x7380
 342 -177 312 -200 296 -215 c 2
 284 -227 l 1xb380
 273 -216 l 1
 273 -216 276 -213 279 -210 c 2
 321 -167 l 2
 334 -154 370 -123 406 -123 c 0x7380
 431 -123 499 -173 526 -173 c 0xb380
 538 -173 557 -163 573 -153 c 1
 573 82 l 1
276 198 m 2
 275 198 l 0
 219 200 198 220 195 223 c 2
 194 223 l 1
 147 176 l 1
 147 106 l 1
 226 27 l 1
 333 134 l 1
 333 198 l 1
 276 198 l 2
EndSplineSet
LCarets2: 1 360 
Ligature2: "Historic ligatures-1" a g
EndChar
StartChar: o_c
Encoding: 61357 61357 668
Width: 660
Flags: W
HStem: 407 20G<236 276 476 516> 407 20G<236 276 476 516>
VStem: 93 54<104 264> 333 54<104 296>
LayerCount: 2
Back
SplineSet
600 280 m 9
 480 400 l 25
 360 280 l 25
 360 120 l 25
 480 0 l 25
 600 120 l 1041
240 400 m 25
 120 280 l 25
 120 120 l 25
 240 0 l 25
 360 120 l 25
 360 280 l 25
 240 400 l 25
EndSplineSet
Fore
SplineSet
224 373 m 1x30
 147 296 l 1
 147 136 l 2
 147 75 224 59 256 27 c 1
 333 104 l 1
 333 264 l 2
 333 325 256 341 224 373 c 1x30
93 264 m 1
 256 427 l 1
 376 307 l 1
 496 427 l 1xb0
 627 296 l 1
 584 253 l 1
 464 373 l 1
 387 296 l 1
 387 136 l 2
 387 75 464 59 496 27 c 1
 616 147 l 1
 627 136 l 1
 464 -27 l 1
 344 93 l 1
 224 -27 l 1
 93 104 l 1
 93 264 l 1
EndSplineSet
LCarets2: 1 360 
Ligature2: "Historic ligatures-1" o c
EndChar
StartChar: n.alt
Encoding: 61992 61992 598
Width: 480
Flags: W
HStem: 407 20G<96 136 266 306> 407 20G<96 136 266 306>
VStem: 93 54<44 266 288 356> 333 54<-74 326>
AnchorPoint: "abvmark" 240 500 basechar 0
LayerCount: 2
Back
SplineSet
100 40 m 25
 140 0 l 1049
140 360 m 25
 100 400 l 1049
120 380 m 9
 120 20 l 1025
320 -130 m 25
 360 -90 l 1
 360 310 l 9
 270 400 l 1
 120 250 l 1049
EndSplineSet
Fore
SplineSet
304 -157 m 1xb0
 293 -146 l 1
 333 -106 l 1
 333 294 l 2
 333 338 277 350 254 373 c 1
 147 266 l 1
 147 36 l 1
 167 16 l 1
 124 -27 l 1
 104 -7 l 1
 93 4 l 1
 73 24 l 1
 93 44 l 1
 93 234 l 1
 93 364 l 1
 73 384 l 1
 116 427 l 1
 136 407 l 1
 147 396 l 1
 167 376 l 1
 147 356 l 1
 147 288 l 1
 286 427 l 1
 387 326 l 1
 387 -74 l 1
 304 -157 l 1xb0
EndSplineSet
EndChar
StartChar: longs_k
Encoding: 62716 62716 708
Width: 780
Flags: W
HStem: -227 54<22.5015 90.7506> -177 54<-102.126 -24.4241> 432 20G<636 676> 573 54<330.178 393>
VStem: 123 54<-134 514> 393 54<44 200 234 573> 633 54<44 180 366 381>
LayerCount: 2
Back
SplineSet
640 425 m 25
 680 385 l 1049
420 200 m 1
 660 350 l 9
 660 405 l 1049
540 275 m 1
 660 200 l 1
 660 20 l 1025
640 40 m 25
 680 0 l 1049
400 40 m 25
 440 0 l 1049
-150 -200 m 17
 -150 -200 -106 -150 -60 -150 c 8
 -48 -150 45 -200 60 -200 c 24
 79 -200 150 -150 150 -150 c 1
 150 530 l 1
 270 650 l 1
 270 650 319 600 420 600 c 9
 420 20 l 1025
EndSplineSet
Fore
SplineSet
-166 -227 m 1xbe
 -177 -216 l 1
 -177 -216 -174 -213 -171 -210 c 2
 -129 -167 l 2
 -116 -154 -80 -123 -44 -123 c 0x7e
 -32 -123 61 -173 76 -173 c 0xbe
 85 -173 106 -162 123 -151 c 1
 123 514 l 1
 286 677 l 1
 289 674 338 627 436 627 c 1
 447 616 l 1
 447 234 l 1
 633 350 l 1
 633 389 l 1
 613 409 l 1
 656 452 l 1
 676 432 l 1
 687 421 l 1
 707 401 l 1
 687 381 l 1
 687 366 l 1
 644 323 l 1
 583 285 l 1
 676 227 l 1
 687 216 l 1
 687 36 l 1
 707 16 l 1
 664 -27 l 1
 644 -7 l 1
 633 4 l 1
 613 24 l 1
 633 44 l 1
 633 180 l 1
 524 248 l 1
 447 200 l 1
 447 36 l 1
 467 16 l 1
 424 -27 l 1
 404 -7 l 1
 393 4 l 1
 373 24 l 1
 393 44 l 1
 393 184 l 1
 393 573 l 1
 302 577 257 621 255 623 c 2
 254 623 l 1
 177 546 l 1
 177 -134 l 1
 134 -177 l 1x7e
 134 -177 63 -227 44 -227 c 0xbe
 29 -227 -64 -177 -76 -177 c 0x7e
 -108 -177 -138 -200 -154 -215 c 2
 -166 -227 l 1xbe
EndSplineSet
LCarets2: 1 360 
Ligature2: "Ligatures-1" longs k
EndChar
StartChar: f_f_l
Encoding: 64260 64260 325
Width: 780
Flags: W
HStem: -227 54<21.566 93.3405 247.834 336.679> -177 54<-102.126 -23.7456> 373 54<76 123 177 363 417 584> 598 54<536.557 624>
VStem: 123 54<-129.885 373 427 514> 363 54<-134 373 427 515.75> 633 54<44 581>
LayerCount: 2
Back
SplineSet
150 -150 m 1
 187 -150 262 -200 300 -200 c 0
 334 -200 390 -150 390 -150 c 1
 390 530 l 1
 510 650 l 17
 510 650 592 625 640 625 c 1
 680 585 l 1025
-150 -200 m 17
 -150 -200 -106 -150 -60 -150 c 8
 -35 -150 33 -200 60 -200 c 24
 86 -200 150 -150 150 -150 c 1
 150 530 l 1
 270 650 l 1
 270 650 337 530 390 530 c 1025
60 400 m 25
 600 400 l 1049
640 40 m 25
 680 0 l 25
 720 40 l 1049
660 605 m 9
 660 20 l 1049
EndSplineSet
Fore
SplineSet
33 384 m 1xbe
 76 427 l 1
 123 427 l 1
 123 514 l 1
 286 677 l 1
 297 666 l 1
 297 666 323 618 356 583 c 0
 372 568 390 557 406 557 c 1
 526 677 l 1
 526 677 608 652 656 652 c 1
 676 632 l 1
 687 621 l 1
 707 601 l 1
 687 581 l 1
 687 36 l 1
 696 27 l 1
 736 67 l 1
 747 56 l 1
 664 -27 l 1
 613 24 l 1
 633 44 l 1
 633 589 l 1
 624 598 l 1
 576 598 494 623 494 623 c 1
 417 546 l 1
 417 427 l 1
 616 427 l 1
 627 416 l 1
 584 373 l 1
 417 373 l 1
 417 -134 l 1
 374 -177 l 1x7e
 374 -177 318 -227 284 -227 c 0xbe
 246 -227 171 -177 134 -177 c 1x7e
 134 -177 70 -227 44 -227 c 0xbe
 17 -227 -51 -177 -76 -177 c 0x7e
 -108 -177 -138 -200 -154 -215 c 2
 -166 -227 l 1xbe
 -177 -216 l 1
 -177 -216 -174 -213 -171 -210 c 2
 -129 -167 l 2
 -116 -154 -80 -123 -44 -123 c 0x7e
 -19 -123 49 -173 76 -173 c 0
 88 -173 107 -163 123 -153 c 1
 123 373 l 1
 44 373 l 1
 33 384 l 1xbe
177 427 m 1
 363 427 l 1
 363 505 l 1
 349 509 334 520 320 534 c 2
 309 545 l 2
 285 569 264 601 252 620 c 1
 177 546 l 1
 177 427 l 1
177 373 m 1
 177 -124 l 1
 216 -132 282 -173 316 -173 c 0xbe
 330 -173 348 -164 363 -155 c 1
 363 373 l 1
 177 373 l 1
EndSplineSet
LCarets2: 2 360 600 
Ligature2: "Ligatures-1" f f l
EndChar
